<?xml version="1.0" encoding="utf-8"?>
<!-- Generator: Adobe Illustrator 23.1.1, SVG Export Plug-In . SVG Version: 6.00 Build 0)  -->
<svg version="1.1" id="Layer_1" xmlns="http://www.w3.org/2000/svg" xmlns:xlink="http://www.w3.org/1999/xlink" x="0px" y="0px"
	 viewBox="0 0 400 400" style="enable-background:new 0 0 400 400;" xml:space="preserve">
<style type="text/css">
	.st0{fill:url(#SVGID_1_);}
	.st1{fill:url(#SVGID_2_);}
	.st2{fill:url(#SVGID_3_);}
	.st3{fill:url(#SVGID_4_);}
	.st4{fill:url(#SVGID_5_);}
</style>
<g>
	<linearGradient id="SVGID_1_" gradientUnits="userSpaceOnUse" x1="305.144" y1="300.9238" x2="103.8565" y2="99.6363">
		<stop  offset="9.321263e-03" style="stop-color:#55A4CA"/>
		<stop  offset="1" style="stop-color:#A51CC6"/>
	</linearGradient>
	<path class="st0" d="M204.5,61.43c-80.43,0-145.86,62.29-145.86,138.85c0,76.56,65.43,138.85,145.86,138.85
		c80.43,0,145.86-62.29,145.86-138.85C350.36,123.72,284.93,61.43,204.5,61.43z M204.5,329.13c-74.91,0-135.86-57.8-135.86-128.85
		c0-71.05,60.95-128.85,135.86-128.85c74.91,0,135.86,57.8,135.86,128.85C340.36,271.33,279.41,329.13,204.5,329.13z"/>
	<linearGradient id="SVGID_2_" gradientUnits="userSpaceOnUse" x1="217.0058" y1="259.684" x2="216.8425" y2="259.5207">
		<stop  offset="9.321263e-03" style="stop-color:#55A4CA"/>
		<stop  offset="1" style="stop-color:#A51CC6"/>
	</linearGradient>
	<path class="st1" d="M216.88,259.8c0.03-0.14,0.06-0.28,0.1-0.42c-0.03,0.08-0.07,0.21-0.11,0.43
		C216.87,259.81,216.88,259.81,216.88,259.8z"/>
	<linearGradient id="SVGID_3_" gradientUnits="userSpaceOnUse" x1="214.503" y1="263.5773" x2="214.4759" y2="263.5502">
		<stop  offset="9.321263e-03" style="stop-color:#55A4CA"/>
		<stop  offset="1" style="stop-color:#A51CC6"/>
	</linearGradient>
	<path class="st2" d="M214.55,263.49c0.01-0.02,0.02-0.03,0.04-0.05c-0.07,0.09-0.14,0.18-0.19,0.24
		C214.44,263.62,214.5,263.56,214.55,263.49z"/>
	<linearGradient id="SVGID_4_" gradientUnits="userSpaceOnUse" x1="285.847" y1="292.6247" x2="123.0152" y2="129.7928">
		<stop  offset="9.321263e-03" style="stop-color:#55A4CA"/>
		<stop  offset="1" style="stop-color:#A51CC6"/>
	</linearGradient>
	<path class="st3" d="M322.31,251.46c-2.28-3.94-5.25-7.32-8.71-10.13c-2.08-2.13-4.3-4.1-6.79-5.77c-3.7-2.49-7.98-4.22-12.28-5.36
		c-2.87-0.76-5.78-1.27-8.71-1.59c-0.92-0.29-1.85-0.55-2.79-0.77c4.86-1.73,9.78-3.28,14.73-4.76c1.2,0.91,2.53,1.58,3.99,2.07
		c1.81,0.6,4.19-0.39,5.08-2.07c0.98-1.86,0.67-3.89-0.7-5.45c-1.02-1.16-2.2-2.15-3.48-2.95c-0.65-0.68-1.5-1.15-2.44-1.28
		c-2.9-1.23-6.13-1.71-9.27-1.44c-5.3-1.31-10.73-2.7-16.14-1.68c-0.14,0.03-0.27,0.08-0.4,0.12c-0.42-0.12-0.86-0.26-1.29-0.39
		c0.28-0.82,0.37-1.74,0.11-2.57c-0.17-0.54-0.44-1.1-0.8-1.59c5.22,0.8,10.55,0.63,15.81,0.38c1.91-0.09,3.89-1.33,4.34-3.3
		c0.01-0.04,0.01-0.09,0.02-0.13c1.05,0.67,2.11,1.33,3.19,1.97c0.11,0.07,0.23,0.11,0.34,0.16c0.3,0.28,0.6,0.57,0.89,0.85
		c0.07,0.07,0.14,0.15,0.21,0.22c0,0,0.01-0.01,0.01-0.01c1.67,1.66,4.72,1.79,6.36,0c1.69-1.84,1.72-4.53,0-6.36
		c-4.6-4.89-9.54-9.87-15.62-12.92c-3.49-1.75-7.15-2.83-11.06-3.1c-4.02-0.28-8.06,0.44-12.08,0.44c-1.58,0-3.15-0.07-4.72-0.17
		c-0.33-0.08-0.67-0.13-1.03-0.13c-0.29,0-0.58,0-0.87,0c-2.44-0.2-4.87-0.46-7.31-0.74c2.53-0.93,5.05-1.88,7.56-2.85
		c0.16-0.01,0.32-0.03,0.48-0.04c2.91-0.19,5.83-0.16,8.73,0.09c0.68,0.06,1.34,0.13,2.01,0.21c0.09,0.01,0.22,0.03,0.31,0.04
		c0.4,0.06,0.79,0.12,1.18,0.19c1.42,0.23,2.84,0.5,4.27,0.73c3.15,0.5,6.32,0.92,9.51,0.63c2.26-0.21,3.76-1.63,4.23-3.34
		c0.34-0.3,0.64-0.64,0.87-1.07c1.09-2.06,0.62-5-1.61-6.16c-2.5-1.3-5.08-2.61-7.78-3.53c-2.56-1.02-5.17-1.92-7.82-2.69
		c1.92-0.33,3.79-0.91,5.54-1.76c2.83,0.86,5.66,1.74,8.49,2.59c2.15,0.65,4.46-0.6,5.31-2.61c0.93-2.21-0.02-4.26-1.84-5.62
		c-5.41-4.03-12.16-5.86-18.86-5.69c-3.01-0.74-6.1-1.28-9.18-1.37c-0.36-2.07-2.01-3.69-4.37-3.76c-0.62-0.02-1.24-0.03-1.87-0.04
		c0.01-0.01,0.01-0.02,0.02-0.03c5.57,0.14,11.14,0.01,16.7-0.46c1.83-0.15,3.37-1.01,4.11-2.77c0.63-1.49,0.47-3.83-0.93-4.92
		c-3.35-2.59-6.74-5.14-10.18-7.62c-1.13-0.81-2.28-1.66-3.47-2.44c0.04-0.47,0.01-0.95-0.09-1.41c2.48-0.19,4.97-0.37,7.45-0.52
		c1.82-0.11,3.38-1.04,4.11-2.77c0.72-1.71,0.31-3.55-0.93-4.92c-2.07-2.27-4.23-4.49-6.86-6.12c-1.82-1.12-3.97-1.96-6.15-2.3
		c-1.47-0.49-3.02-0.78-4.57-0.85c-0.34-0.23-0.71-0.44-1.12-0.6c-4.32-1.79-8.81-3.04-13.42-3.79c-0.54-1.91-2.18-3.21-4.3-3.33
		c-1.47-0.08-2.93-0.11-4.4-0.1c-0.76-0.62-1.74-1.02-2.85-1.11c-4.85-0.38-9.67-0.07-14.47,0.72c-1,0.16-2.23,1.19-2.69,2.07
		c-0.13,0.25-0.23,0.5-0.32,0.75c-0.35,0.03-0.83,0.08-0.91,0.08c-0.61,0.03-1.21,0.04-1.82,0.04c-1.07-0.01-2.13-0.07-3.2-0.16
		c-2.3-0.19-4.58-0.51-6.87-0.74c-4.97-0.5-9.65-0.09-14.48,1.19c-1.09,0.29-2.18,0.59-3.28,0.84c-0.59,0.14-1.18,0.24-1.76,0.36
		c-0.26,0.04-0.4,0.06-0.43,0.07c-0.13,0.01-0.26,0.03-0.39,0.04c-2.29,0.19-4.6,0-6.9,0.25c-4.52,0.49-9.43,2.5-11.1,7
		c-4.68,0.34-9.36,0.67-14.01,1.31c-5.38,0.74-10.66,2.39-14.68,6.2c-2.72,2.58-0.74,7.94,3.18,7.68c1.02-0.07,2.04-0.07,3.06,0
		c0.23,0.02,0.47,0.04,0.7,0.06c0.51,0.06,0.62,0.07,0.33,0.04c-0.29-0.04-0.18-0.01,0.33,0.06c0.23,0.04,0.46,0.08,0.7,0.13
		c0.94,0.18,1.87,0.41,2.79,0.66c-0.23,0.13-0.44,0.28-0.65,0.45c-8.34,1.79-14.75,7.71-20.46,13.98c-1.24,1.36-1.66,3.19-0.93,4.92
		c0.65,1.55,2.34,2.89,4.11,2.77c1.69-0.12,3.37-0.12,5.06,0.03c0.1,0.01,0.63,0.07,0.89,0.1c0.21,0.04,0.68,0.12,0.74,0.13
		c0.86,0.16,1.72,0.36,2.56,0.59c1.45,0.41,2.84,0.97,4.28,1.38c-0.03,0.14-0.06,0.28-0.08,0.42c-4.24,2.82-8.47,5.65-12.72,8.47
		c-1.72,1.14-2.72,3.39-2,5.37c-0.05,0.51-0.01,1.04,0.15,1.54c0.76,2.34,3.1,3.79,5.54,3.14c5.76-1.53,11.07-4,16.22-6.82
		c-1.02,1.32-2.04,2.65-3.07,3.97c-3.42,0.39-6.69,1.96-9.01,4.5c-0.78,0.08-1.55,0.18-2.33,0.28c-5.78,0.07-11.64,0.58-17.26,1.78
		c-2.22,0.47-4.04,1.9-4.76,4.09c-0.62,1.9,0.08,4.08,1.39,5.53c-5.68,3.45-10.9,7.66-15.4,12.53c-1.53,1.66-1.75,4.1-0.35,5.91
		c1.42,1.84,3.77,2.17,5.81,1.16c1.92-0.95,2.92-1.4,4.51-2.01c0.42-0.16,0.84-0.3,1.26-0.46c-0.43,0.64-0.84,1.3-1.22,1.97
		c-1.35,2.33-0.32,4.8,1.55,5.99c-2.02,1.92-3.69,4.28-4.46,6.88c-1.79,1.28-3.49,2.69-5.1,4.16c-1.41,1.29-1.74,3.84-0.7,5.45
		c1.16,1.81,3.02,2.41,5.08,2.07c1.86-0.31,2.28-0.37,4.02-0.56c1.67-0.18,3.34-0.31,5.02-0.4c1.26-0.07,2.52-0.09,3.78-0.11
		c-0.37,0.56-0.61,1.22-0.71,1.9c-3.27,3.04-6.32,6.3-9.1,9.78c-2.46,2.92-4.77,5.97-6.9,9.16c-0.36,0.55-0.55,1.18-0.6,1.84
		c-1.02,1.79-1.98,3.61-2.86,5.47c-0.84,1.76-0.84,4.03,0.7,5.45c1.4,1.29,3.77,1.86,5.45,0.7c4.03-2.77,8.09-5.49,12.17-8.19
		c0.25,0.46,0.5,0.91,0.75,1.37c1.74,3.18,5.92,2.63,7.77,0c0.34-0.47,0.68-0.94,1.02-1.4c0.01-0.02,0.02-0.02,0.03-0.04
		c0.21-0.25,0.41-0.51,0.62-0.76c0.22-0.26,0.44-0.52,0.67-0.77c0.4-0.2,0.78-0.45,1.12-0.77c2.58-2.39,5.15-4.77,7.74-7.15
		c0.07-0.05,0.13-0.1,0.2-0.14c0.02-0.02,0.05-0.03,0.07-0.04c-0.06,0.16-0.12,0.32-0.19,0.47c-0.21,0.51-0.24,0.58-0.1,0.24
		c-0.25,0.58-0.51,1.16-0.77,1.74c-0.94,2.07-0.73,4.34,1.16,5.81c1.11,0.86,2.4,1.08,3.62,0.81c1.35,0.22,2.77-0.18,3.89-1.21
		c0.63-0.59,1.29-1.14,1.95-1.69c1.71-0.94,3.35-1.98,4.94-3.11c-0.1,0.4-0.21,0.8-0.35,1.2c-0.98,2.95,1.84,6,4.77,5.69
		c-1.33,4.34-2.14,8.84-2.36,13.44c-0.15,3.15,4.05,5.96,6.77,3.89c1.2-0.91,2.45-1.75,3.75-2.5c0.66-0.38,1.33-0.73,2.01-1.06
		c0.34-0.17,0.69-0.32,1.03-0.49c0.05-0.03,0.1-0.05,0.14-0.07c0.05-0.02,0.1-0.04,0.19-0.07c1.43-0.55,2.88-1.06,4.36-1.45
		c0.74-0.2,1.49-0.38,2.25-0.53c0.38-0.08,0.76-0.15,1.14-0.22c0.08-0.01,0.68-0.11,0.94-0.15c0.24-0.03,0.66-0.08,0.74-0.09
		c0.39-0.04,0.77-0.07,1.16-0.1c0.77-0.06,1.55-0.09,2.32-0.1c1.55-0.02,3.09,0.04,4.63,0.2c0.08,0.01,0.62,0.07,0.82,0.1
		c0.24,0.04,0.58,0.1,0.66,0.11c0.76,0.13,1.51,0.29,2.26,0.47c0.63,0.15,1.26,0.33,1.88,0.52c0.26,0.29,0.52,0.58,0.77,0.88
		c0.02,0.02,0.05,0.06,0.09,0.1c0,0.04,0,0.07,0,0.11c0.01,2.73,0.02,5.47,0.03,8.2c0.02,6.05,0.04,12.1,0.06,18.14
		c0.01,2.19,1.44,3.56,3.3,4.34c1.61,0.67,3.35,0.91,5.08,0.79c0.15,0.05,0.29,0.1,0.44,0.12c2.54,0.41,5.13,0.56,7.64-0.2
		c2.63-0.81,4.9-2.47,6.31-4.85c1.02-1.73,1.51-3.68,1.8-5.65c0.13-0.9,0.25-1.8,0.41-2.69c7.29-7.76,13.81-16.25,19.38-25.32
		c1.7,0.35,3.41,0.67,5.13,0.92c3.56,0.53,7.09,0.67,10.68,0.92c0.46,0.03,0.92,0.07,1.38,0.12c0.55,0.06,0.61,0.07,0.17,0.02
		c0.3,0.05,0.6,0.11,0.9,0.17c0.82,0.17,1.63,0.42,2.41,0.73c0.12,0.07,0.78,0.39,0.78,0.39c0.4,0.21,0.8,0.42,1.2,0.65
		c0.8,0.45,1.59,0.93,2.37,1.41c3.69,2.23,7.39,4.47,11.08,6.7c3.25,1.96,7.86-1.32,6.61-5.08c-2.21-6.62-6.96-11.92-12.98-15.17
		c1.29-0.36,2.56-0.71,3.87-0.99c0.34-0.07,0.69-0.12,1.03-0.19c0.02,0,0.02-0.01,0.04-0.01c0.01,0,0.01,0,0.01,0
		c0.7-0.03,1.38-0.1,2.09-0.06c0.04,0,0.22,0.01,0.38,0.02c0.05,0.01,0.11,0.02,0.17,0.03c1.42,1.08,2.83,2.16,4.26,3.22
		c0.95,0.76,1.92,1.5,2.96,2.17c0.16,0.1,0.32,0.19,0.47,0.29c3.2,2.29,6.42,4.54,9.7,6.71c0.31,0.61,0.6,1.24,0.89,1.86
		c0.04,0.09,0.08,0.17,0.12,0.26c0.01,0.03,0.02,0.04,0.03,0.08c0.18,0.48,0.37,0.95,0.55,1.43c0.75,2.02,2.74,3.65,4.96,3.28
		c0.25,0.04,0.5,0.05,0.76,0.04c1.82-0.08,4.04-1.32,4.34-3.3c0.13-0.84,0.18-1.68,0.18-2.52c2.04,1.16,5.11,0.71,6.19-1.57
		c1.54-3.27,1.46-6.81-0.18-9.99c1.86,0.59,3.73,1.13,5.63,1.6c1.1,1.2,2.73,1.86,4.42,1.31c0.13-0.04,0.26-0.09,0.38-0.14
		c0.24,0.21,0.49,0.41,0.73,0.61c1.71,1.48,4.06,1.78,5.91,0.35C322.91,255.91,323.44,253.42,322.31,251.46z M128.49,205.16
		c-0.18,0.04-0.36,0.1-0.53,0.15c0.2-0.16,0.39-0.33,0.59-0.49c0.08-0.06,0.17-0.13,0.27-0.2c0.21-0.15,0.41-0.3,0.62-0.45
		c0.53-0.37,1.06-0.72,1.61-1.07c0.02-0.01,0.03-0.02,0.05-0.03c-0.5,0.58-0.98,1.19-1.43,1.83
		C129.27,204.99,128.88,205.06,128.49,205.16z M249.41,195.75C249.41,195.75,249.41,195.75,249.41,195.75
		c-0.01,0.01-0.02,0.02-0.03,0.02C249.39,195.76,249.4,195.76,249.41,195.75z M249.18,195.82c0.01-0.02,0.05-0.04,0.1-0.05
		C249.22,195.81,249.17,195.84,249.18,195.82z M144.22,203.54c1.31-0.96,2.62-1.94,3.88-2.98c-0.01,0.73,0,1.46,0.03,2.19
		c-0.53,0.18-1.03,0.47-1.47,0.85C145.85,203.57,145.04,203.55,144.22,203.54z M258.19,227.51c-0.84,0.33-1.63,0.75-2.38,1.29
		c-1.32,0.95-2.42,2.15-3.24,3.48c-2.68,0.16-5.36,0.27-8.05,0.25c-2.6-0.02-5.21-0.16-7.8-0.48c-0.04-0.01-1.1-0.17-1.22-0.2
		c-0.58-0.1-1.16-0.21-1.73-0.33c-0.71-0.15-1.42-0.32-2.13-0.51c4.05-0.72,7.96-1.89,11.9-3.14c2.6-0.83,5.2-1.65,7.85-2.28
		c0.69-0.16,1.39-0.32,2.09-0.45c0.28-0.05,0.56-0.1,0.84-0.15c0.03,0,0.24-0.03,0.44-0.07c0.48,0.23,0.97,0.46,1.44,0.72
		c0.15,0.08,0.3,0.18,0.45,0.26C257.03,226.57,257.56,227.12,258.19,227.51z M188.85,195.96c0.06,1.86,0.12,3.71,0.16,5.57
		c0.02,0.85,0.02,1.7,0.04,2.55c-0.76,0.02-1.51,0.03-2.27,0.05c-4.4,0.1-8.81,0.21-13.21,0.31c-0.76-0.18-1.53-0.35-2.3-0.53
		c0.26-0.1,0.51-0.2,0.76-0.31c1.66-0.67,3.32-1.35,4.93-2.14c1.4-0.69,2.73-1.48,4.05-2.29
		C183.63,198.1,186.24,197.03,188.85,195.96z M161.69,198.4c-0.53,0.28-1.05,0.59-1.57,0.91c-0.01-0.26-0.01-0.52-0.02-0.78
		c0.54-0.06,1.08-0.13,1.61-0.21C161.7,198.34,161.7,198.37,161.69,198.4z M198,202c-0.08-3.47-0.18-6.95-0.32-10.42
		c0.86,0.33,1.74,0.63,2.64,0.81c0.66,0.13,1.32,0.23,1.98,0.3C200.87,195.8,199.44,198.9,198,202z M170.53,235.85
		c-0.44,0.09-0.89,0.19-1.33,0.3c0.06-0.22,0.12-0.44,0.15-0.67C169.71,235.66,170.11,235.78,170.53,235.85z M219.64,191.96
		c-1.13,0.51-1.84,1.66-2.1,2.92c-2.54,0.33-5,1.16-7.39,2.31c1.01-2.17,2-4.36,2.97-6.54c0.01-0.01,0.02-0.02,0.03-0.03
		c0.17-0.02,0.3-0.03,0.34-0.04c0.64-0.05,1.27-0.09,1.91-0.11c1.12-0.04,2.23-0.04,3.35-0.01c1.12,0.03,2.24,0.1,3.36,0.19
		C221.31,191.13,220.5,191.57,219.64,191.96z M226.43,160.15C226.43,160.15,226.43,160.15,226.43,160.15
		C226.43,160.15,226.43,160.15,226.43,160.15c0.04-0.01,0.07-0.01,0.1-0.02C226.5,160.14,226.46,160.14,226.43,160.15z
		 M193.81,141.74c0.17,0.02,0.33,0.05,0.51,0.06c0.37,0,0.74-0.01,1.11-0.01c0.01,0.15,0.03,0.29,0.06,0.43
		c-0.54-0.01-1.09-0.03-1.63-0.06C193.84,142.02,193.83,141.88,193.81,141.74z M208.8,151.36c0.78,1.25,2.14,2.03,3.79,2.16
		c1.08,0.09,2.15,0.17,3.22,0.26c-0.16,0.7-0.33,1.41-0.48,2.11c-0.04,0-0.08,0.01-0.13,0.01c-0.84-1.02-2.06-1.75-3.4-1.63
		c-0.53,0.05-1.04,0.12-1.53,0.22c-0.56-0.25-1.16-0.4-1.82-0.43c-0.58-0.03-1.16-0.06-1.74-0.11c-0.26-0.02-0.51-0.05-0.77-0.08
		c-0.04,0-0.1-0.01-0.16-0.01c-0.42-0.03-0.84-0.12-1.25-0.2c-0.23-0.12-0.47-0.23-0.7-0.34c0.1,0.07,0.21,0.16,0.33,0.27
		c-0.26-0.05-0.51-0.1-0.76-0.16c-0.78-0.14-0.54-0.49,0.03-0.31c-0.06-0.03-0.12-0.06-0.18-0.09c-1.65-0.83-3.5-0.8-5,0.35
		c-1.38,1.07-2.14,3-1.61,4.73c0.25,0.8,0.63,1.46,1.1,2c0.04,0.5,0.16,0.99,0.37,1.46c-0.95,0.56-1.69,1.33-2.07,2.29
		c-0.35-4.22-0.73-8.44-1.16-12.65C199.5,151.37,204.15,151.37,208.8,151.36z M196.33,167.66c0.78,1.39,2.23,2.49,3.86,2.3
		c0.57-0.07,1.14-0.13,1.71-0.2c0.1,0.35,0.23,0.69,0.43,0.99c1.18,1.84,3,2.36,5.08,2.07c-0.43,0.06-0.48,0.06-0.02,0.01
		c0.33-0.04,0.65-0.08,0.98-0.11c0.59-0.06,1.18-0.12,1.77-0.17c0.26-0.02,0.52-0.03,0.77-0.05c-0.25,0.72-0.5,1.43-0.77,2.14
		c-3.86-0.01-7.72-0.01-11.58-0.02c-0.58,0-1.17,0-1.75,0C196.67,172.3,196.51,169.98,196.33,167.66z M233.69,158.68
		c-0.34-0.2-0.69-0.36-1.08-0.44c-2.87-0.58-5.69-0.64-8.53-0.44c0.24-1.1,0.49-2.2,0.75-3.3c1.6,0.13,3.2,0.26,4.81,0.38
		c0.38,1.49,1.56,2.61,3.13,3.22c0.35,0.14,0.7,0.27,1.05,0.41C233.77,158.57,233.73,158.62,233.69,158.68z M198.91,257.6
		c-0.01,0.03-0.01,0.06-0.02,0.09c-0.18,0-0.35,0-0.53,0.01c0.13-0.04,0.27-0.08,0.4-0.12C198.81,257.58,198.86,257.59,198.91,257.6
		z M177.99,145.97c0-0.08-0.02-0.15-0.03-0.23c2.31,1.91,4.94,3.23,7.76,4.09c0.53,5.06,1.02,10.13,1.42,15.21
		c0.12,1.48,0.22,2.97,0.32,4.45c-0.01-0.01-0.02-0.03-0.03-0.04c-0.09-0.12-0.15-0.2-0.2-0.26c-0.14-0.19-0.28-0.37-0.42-0.56
		c-2.21-3.02-3.97-6.29-5.66-9.61c-1.62-3.17-3.23-6.36-5.29-9.27C177.14,148.94,178.06,147.54,177.99,145.97z M246.64,201.45
		c0.74,0.63,1.47,1.28,2.21,1.91c-0.08,0.12-0.18,0.23-0.25,0.36c-0.1,0.19-0.17,0.39-0.24,0.59c-6.4-0.44-12.81-0.58-19.22-0.42
		c2.57-1.31,5.15-2.59,7.76-3.83c1.06-0.5,2.13-1,3.21-1.48c0.5-0.22,1-0.45,1.51-0.67c0.22-0.09,0.43-0.19,0.65-0.28
		c0.13-0.06,0.19-0.08,0.21-0.09c0.01,0,0.01,0,0.02-0.01c0.13-0.05,0.26-0.1,0.39-0.15C243.82,198.96,245.22,200.25,246.64,201.45z
		 M163.75,169.11c2.49-1.85,4.43-4.46,4.32-7.43c0.31-0.17,0.61-0.34,0.92-0.5c1.04-0.54,1.65-1.36,1.95-2.27
		c0.84,1.53,1.64,3.09,2.43,4.65c2.07,4.06,4.41,7.89,7.14,11.43c-4.13-0.03-8.26-0.01-12.39,0.06c-0.53-0.15-1.07-0.29-1.6-0.44
		c0.01-0.44-0.06-0.9-0.23-1.37c-0.63-1.78-1.72-3-3.07-3.76C163.4,169.34,163.58,169.24,163.75,169.11z M256.84,171.27
		c0.01,0,0.02,0,0.02,0c-0.01,0-0.02,0.01-0.03,0.01C256.84,171.28,256.84,171.27,256.84,171.27z M216.9,259.76
		c-0.01,0.02-0.02,0.03-0.02,0.04c-0.01,0.04-0.02,0.08-0.03,0.12c0.01-0.04,0.01-0.07,0.02-0.1c-0.08,0.17-0.17,0.33-0.25,0.5
		c-0.2,0.37-0.41,0.74-0.63,1.09c-0.43,0.7-0.91,1.37-1.41,2.03c0.03-0.03,0.05-0.06,0.08-0.09c-0.04,0.05-0.08,0.1-0.11,0.14
		c-0.01,0.01-0.02,0.02-0.03,0.04c-0.25,0.34-0.23,0.3-0.13,0.16c-0.07,0.1-0.15,0.19-0.22,0.28c-0.27,0.34-0.55,0.69-0.83,1.03
		c-1.07,1.33-2.14,2.67-3.11,4.07c-0.02-0.25-0.04-0.5-0.07-0.74c0.03-0.18,0.07-0.36,0.09-0.55c0.45-3.69,0.48-7.36,0.2-11.03
		c0.39,0.04,0.79,0.07,1.18,0.12c0.05,0.01,0.72,0.09,0.84,0.1c1.5,0.21,2.99,0.47,4.47,0.77c0.17,0.03,0.33,0.07,0.5,0.11
		c-0.13,0.52-0.31,1.03-0.46,1.54C217.05,259.18,217.06,259.42,216.9,259.76z M217.3,248.71c0.09-0.04,0.18-0.06,0.26-0.11
		c0.27,0.1,0.54,0.21,0.8,0.31C218.01,248.85,217.66,248.78,217.3,248.71z"/>
	<linearGradient id="SVGID_5_" gradientUnits="userSpaceOnUse" x1="203.7666" y1="153.3705" x2="203.4592" y2="153.0631">
		<stop  offset="9.321263e-03" style="stop-color:#55A4CA"/>
		<stop  offset="1" style="stop-color:#A51CC6"/>
	</linearGradient>
	<path class="st4" d="M203.82,153.32c-0.15-0.1-0.29-0.16-0.41-0.2C203.54,153.18,203.68,153.25,203.82,153.32z"/>
</g>
</svg>
